<svg width="3767" height="2292" xmlns="http://www.w3.org/2000/svg" overflow="hidden"><defs><clipPath id="a"><path d="M307 100h3767v2292H307z"/></clipPath></defs><g clip-path="url(#a)" transform="translate(-307 -100)" fill-rule="evenodd"><path d="M579 414h3493v1820H579z" fill="#F6F8F9"/><path d="M834.5 1303.5l2731-787" stroke="#595478" stroke-width="252.918" stroke-linecap="round" stroke-miterlimit="8" fill="#595478"/><path d="M3942 406.639L3473.12 778l64.45-254.756L3348 342z" fill="#595478"/><path d="M320.97 1809h36.031v5H320.97v15H316v-35h4.97v15zM359 1768.5c0 12.65-9 21.5-21.857 21.5S314 1781.15 314 1768.5s9-21.5 21.857-21.5c12.858 1.26 23.143 10.12 23.143 21.5zm-39.857 0c0 8.85 6.428 15.18 16.714 15.18 10.286 0 18-6.33 18-15.18s-6.428-15.18-16.714-15.18c-11.572 0-18 6.33-18 15.18zM320.97 1723h36.031v5H320.97v15H316v-35h4.97v15zM357.001 1671v6.33l-11.182 3.8v17.74l11.182 3.8v6.33L316 1692.53v-6.33l41.001-15.2zm-34.789 17.73l19.879 7.6v-13.93l-19.879 6.33zM357.001 1664H316v-6.43h36.031V1637h4.97v27zM343.334 1602.55v5.09h13.667v6.36H316v-11.45c0-11.46 6.212-16.55 13.667-16.55 8.697 0 13.667 6.36 13.667 16.55zm-22.364 0v5.09h17.394v-6.37c0-7.63-3.728-10.18-8.697-10.18-6.213 0-8.697 3.82-8.697 11.46zM357.736 1570.7v6.3H316v-12.61c0-10.09 5.059-15.13 12.647-15.13 6.323 0 10.118 3.78 12.647 10.09L359 1548v6.3l-17.706 8.83v7.57h16.442zm-21.501-6.31c0-5.04-2.529-10.09-7.588-10.09s-7.588 3.79-7.588 10.09v6.31h15.176v-6.31zM357.001 1538H316v-26h4.97v21.05h12.424v-17.34h4.97v17.34h12.424V1512h4.97v26zM346.143 1480.91c-3.857 0-6.428 3.92-7.715 10.44-1.285 6.52-3.857 13.04-12.857 13.04-7.714 0-11.571-6.52-11.571-14.35 0-5.21 1.286-9.13 3.857-13.04l5.143 2.61c-2.572 3.91-3.857 7.82-3.857 11.74 0 6.52 2.571 9.13 6.428 9.13 3.857 0 6.429-3.91 7.715-10.44 1.285-6.52 5.142-13.04 12.857-13.04 7.714 0 12.857 6.52 12.857 15.65 0 5.22-1.285 10.44-3.857 14.35l-5.143-1.3c2.572-3.92 3.857-7.83 3.857-13.05 0-7.82-2.571-11.74-7.714-11.74zM323.543 1435.57c-2.515 3.86-3.772 7.72-3.772 11.57 0 9 6.286 15.43 16.343 15.43 10.058 0 17.601-6.43 17.601-15.43 0-5.14-1.258-9-3.772-11.57l6.286-1.28c2.514 3.85 3.771 9 3.771 12.85 0 12.86-8.8 21.86-21.372 21.86-12.571 0-22.628-9-22.628-21.86 0-5.14 1.257-10.28 3.771-14.14l3.772 2.57zM357.736 1417.7v6.3H316v-12.61c0-10.09 5.059-15.13 12.647-15.13 6.323 0 10.118 3.78 12.647 10.09L359 1395v6.3l-17.706 10.09v7.57h16.442zm-21.501-6.31c0-5.04-2.529-10.09-7.588-10.09s-7.588 3.79-7.588 10.09v6.31h15.176v-6.31zM357.001 1385H316v-5h41.001v5zM343.334 1355.95v4.91h13.667v6.14H316v-11.05c0-11.04 6.212-15.95 13.667-15.95 8.697 0 13.667 6.14 13.667 15.95zm-22.364 0v4.91h17.394v-6.13c0-7.37-3.728-9.82-8.697-9.82-6.213 0-8.697 3.68-8.697 11.04zM320.97 1313h36.031v5H320.97v15H316v-35h4.97v15zM357.001 1290H316v-5h41.001v5zM359 1253.5c0 12.65-9 21.5-21.857 21.5S314 1266.15 314 1253.5s9-21.5 21.857-21.5c12.858 0 23.143 8.85 23.143 21.5zm-39.857 0c0 8.85 6.428 15.18 16.714 15.18 10.286 0 18-6.33 18-15.18s-6.428-15.18-16.714-15.18c-11.572-1.26-18 5.06-18 15.18zM316 1193.04V1188h43v6.3l-34.147 22.66H359v5.04h-43v-6.3l34.147-22.66H316zM346.143 1153.78c-3.857 0-6.428 3.79-7.715 10.09-1.285 6.3-3.857 12.61-12.857 12.61-7.714 0-11.571-6.31-11.571-13.87 0-5.04 1.286-8.83 3.857-12.61l5.143 2.52c-2.572 3.78-3.857 7.57-3.857 11.35 0 6.3 2.571 8.83 6.428 8.83 3.857 0 6.429-3.79 7.715-10.09 1.285-6.31 5.142-12.61 12.857-12.61 7.714 0 12.857 6.3 12.857 15.13 0 5.04-1.285 10.09-3.857 13.87l-5.143-1.26c2.572-5.04 3.857-8.83 3.857-13.87 0-5.04-2.571-10.09-7.714-10.09zM343.731 1121c-16.5 0-27.923-11.65-31.731-19.41l3.808-2.59c3.807 7.76 13.961 16.82 29.192 16.82 13.962 0 24.116-9.06 29.192-16.82l3.808 2.59c-6.346 9.06-17.769 19.41-34.269 19.41zM323.588 1056.32l34.148 12.65v6.32l-34.148 12.65H359v5.06l-43-1.26v-7.59l34.147-12.65L316 1058.85v-7.59l41.736-1.26v6.32h-34.148zM357.001 1037H316v-5h41.001v5zM357.001 1019H316v-6.19h36.031V993h4.97v26zM357.001 985H316v-6.19h36.031V959h4.97v26zM357.001 951H316v-6h41.001v6zM359 913.5c0 12.647-9 21.5-21.857 21.5S314 926.147 314 913.5s9-21.5 21.857-21.5c12.858 1.265 23.143 8.853 23.143 21.5zm-39.857 0c0 8.853 6.428 15.177 16.714 15.177 10.286 0 18-6.324 18-15.177s-6.428-15.176-16.714-15.176c-11.572 0-18 6.323-18 15.176zM316 853.923V849h43v6.154l-34.147 22.154H359V881h-43v-6.154l34.147-22.153H316zM346.143 814.783c-3.857 0-6.428 3.782-7.715 10.087-1.285 6.304-3.857 12.609-12.857 12.609-7.714 0-11.571-6.305-11.571-13.87 0-5.044 1.286-8.826 3.857-12.609l5.143 2.522c-2.572 3.783-3.857 7.565-3.857 11.348 0 6.304 2.571 8.826 6.428 8.826 3.857 0 6.429-3.783 7.715-10.087 1.285-6.304 5.142-12.609 12.857-12.609 7.714 0 12.857 6.305 12.857 15.131 0 5.043-1.285 10.087-3.857 13.869L350 838.739c2.572-3.782 3.857-7.565 3.857-12.608 0-7.566-2.571-11.348-7.714-11.348zM371.72 803c-3.84-7.764-14.08-16.823-29.44-16.823-14.08 0-24.32 9.059-29.44 16.823l-3.84-2.588c3.84-7.765 15.36-19.412 32-19.412s28.16 11.647 32 19.412L371.72 803zM424.571 497.737L413 501.605v-6.447L431 490v49h-6.429v-41.263zM461.039 540C449.935 540 445 533.625 445 527.25s4.935-10.2 8.636-12.75c-4.935-2.55-8.636-5.1-8.636-11.475 0-7.65 6.169-14.025 14.805-14.025 9.87 0 14.805 6.375 14.805 12.75s-3.701 10.2-7.403 11.475c4.936 2.55 8.637 5.1 8.637 11.475 1.234 8.925-4.935 15.3-14.805 15.3zm-2.468-24.225c-3.701 1.275-7.402 5.1-7.402 10.2s3.701 8.925 9.87 8.925c6.168 0 9.87-2.55 9.87-7.65 0-6.375-6.169-8.925-12.338-11.475zm2.468-20.4c-6.169 0-8.636 3.825-8.636 7.65 0 5.1 4.934 7.65 11.103 10.2 3.701-1.275 6.169-5.1 6.169-8.925 0-6.375-3.701-8.925-8.636-8.925zM490 540c-2.5 0-5-2.5-5-5s2.5-5 5-5 5 2.5 5 5-1.25 5-5 5zM519.5 540c-10.154 0-16.5-8.925-16.5-25.5 0-15.3 6.346-25.5 16.5-25.5s16.5 8.925 16.5 25.5c0 15.3-7.615 25.5-16.5 25.5zm0-44.625c-5.077 0-10.154 5.1-10.154 19.125s5.077 19.125 10.154 19.125 10.154-6.375 10.154-19.125c0-14.025-5.077-19.125-10.154-19.125zM431.929 713.579L421 717.369v-6.316L438 706v48h-6.071v-40.421zM451 712.216V706h30.72l1.28 4.973L461.24 752h-6.4l21.76-41.027H451zM489 755c-2.5 0-5-2.5-5-5s2.5-5 5-5 5 2.5 5 5-2.5 5-5 5zM516.609 724.948c8.826 0 16.392 5.052 16.392 13.894S526.696 754 516.609 754c-5.044 0-10.087-1.263-12.609-3.789l1.261-6.316c2.522 1.263 7.565 3.789 11.348 3.789 6.304 0 10.087-3.789 10.087-10.105 0-5.053-3.783-8.842-10.087-8.842-3.783 0-7.566 1.263-10.087 2.526h-1.261L509.043 706h23.958v6.316h-18.914l-1.261 13.895s1.261-1.263 3.783-1.263zM433.571 928.579L422 932.369v-6.316L440 921v48h-6.429v-40.421zM452 927.216V921h30.72l1.28 4.973L462.24 967h-6.4l21.76-41.027H452zM490 970c-2.5 0-5-2.5-5-5s2.5-5 5-5 5 2.5 5 5-1.25 5-5 5zM519.5 970c-10.154 0-16.5-8.925-16.5-25.5 0-15.3 6.346-25.5 16.5-25.5s16.5 8.925 16.5 25.5c0 15.3-7.615 25.5-16.5 25.5zm0-44.625c-5.077 0-10.154 5.1-10.154 19.125s5.077 19.125 10.154 19.125 10.154-6.375 10.154-19.125c0-14.025-5.077-19.125-10.154-19.125zM424.571 1143.58L413 1147.37v-6.32l18-5.05v48h-6.429v-40.42zM469.8 1136l1.24 5.03c-11.16 2.51-18.6 8.79-21.08 18.84 2.48-2.51 7.44-5.02 12.4-5.02 7.44 0 13.64 6.28 13.64 15.07 0 8.8-6.2 15.08-14.88 15.08-11.16 0-16.12-8.79-16.12-20.1 0-12.57 7.44-25.13 24.8-28.9zm-8.68 42.72c4.96 0 8.68-3.77 8.68-10.05 0-6.29-3.72-8.8-8.68-8.8-3.72 0-8.68 2.51-9.92 3.77v2.51c-1.24 7.54 2.48 12.57 9.92 12.57zM489 1185c-2.5 0-5-2.5-5-5s2.5-5 5-5 5 2.5 5 5-2.5 5-5 5zM516.609 1154.95c8.826 0 16.392 5.05 16.392 13.89s-6.305 15.16-16.392 15.16c-5.044 0-10.087-1.26-12.609-3.79l1.261-6.31c2.522 1.26 7.565 3.78 11.348 3.78 6.304 0 10.087-3.78 10.087-10.1 0-5.05-3.783-8.84-10.087-8.84-3.783 0-7.566 1.26-10.087 2.52h-1.261l3.782-25.26h23.958v6.32h-18.914l-1.261 13.89s1.261-1.26 3.783-1.26zM425.571 1358.58L414 1362.37v-6.32l18-5.05v48h-6.429v-40.42zM470.8 1351l1.24 5.03c-11.16 2.51-18.6 8.79-21.08 18.84 2.48-2.51 7.44-5.02 12.4-5.02 7.44 0 13.64 6.28 13.64 15.07 0 8.8-6.2 15.08-14.88 15.08-11.16 0-16.12-8.79-16.12-20.1 0-12.57 7.44-25.13 24.8-28.9zm-8.68 42.72c4.96 0 8.68-3.77 8.68-10.05 0-6.29-3.72-8.8-8.68-8.8-3.72 0-8.68 2.51-9.92 3.77v2.51c-1.24 7.54 2.48 12.57 9.92 12.57zM490 1400c-2.5 0-5-2.5-5-5s2.5-5 5-5 5 2.5 5 5-1.25 5-5 5zM519.5 1400c-10.154 0-16.5-8.75-16.5-25 0-15 6.346-25 16.5-25s16.5 8.75 16.5 25c0 15-7.615 25-16.5 25zm0-43.75c-5.077 0-10.154 5-10.154 18.75s5.077 18.75 10.154 18.75 10.154-6.25 10.154-18.75c0-13.75-5.077-18.75-10.154-18.75zM424.571 1573.58L413 1577.37v-6.32l18-5.05v48h-6.429v-40.42zM458.609 1585.1c8.826 0 16.391 5.03 16.391 13.82 0 8.8-6.304 15.08-16.391 15.08-5.044 0-10.087-1.26-12.609-3.77l1.261-6.28c2.522 1.25 7.565 3.77 11.348 3.77 6.304 0 10.087-3.77 10.087-10.05 0-5.03-3.783-8.8-10.087-8.8-3.783 0-7.566 1.26-10.087 2.51l-1.261-1.25 3.782-25.13H475v6.28h-20.174l-1.261 13.82c1.261 1.26 2.522 0 5.044 0zM489 1615c-2.5 0-5-2.5-5-5s2.5-5 5-5 5 2.5 5 5-2.5 5-5 5zM516.609 1585.1c8.826 0 16.392 5.03 16.392 13.82 0 8.8-6.305 15.08-16.392 15.08-5.044 0-10.087-1.26-12.609-3.77l1.261-6.28c2.522 1.25 7.565 3.77 11.348 3.77 6.304 0 10.087-3.77 10.087-10.05 0-5.03-3.783-8.8-10.087-8.8-3.783 0-7.566 1.26-10.087 2.51l-1.261-1.25 3.782-25.13h23.958v6.28h-18.914l-1.261 13.82c0 1.26 1.261 0 3.783 0zM425.571 1788.58L414 1792.37v-6.32l18-5.05v48h-6.429v-40.42zM459.609 1800.1c8.826 0 16.391 5.03 16.391 13.82 0 8.8-6.304 15.08-16.391 15.08-5.044 0-10.087-1.26-12.609-3.77l1.261-6.28c2.522 1.26 7.565 3.77 11.348 3.77 6.304 0 10.087-3.77 10.087-10.05 0-5.03-3.783-8.8-10.087-8.8-3.783 0-7.566 1.26-10.087 2.51l-1.261-1.25 3.782-25.13H476v6.28h-18.913l-1.261 13.82c0 1.26 1.261 0 3.783 0zM490 1831c-2.5 0-5-2.75-5-5.5s2.5-5.5 5-5.5 5 2.75 5 5.5-1.25 5.5-5 5.5zM519.5 1831c-10.154 0-16.5-8.92-16.5-25.5 0-15.3 6.346-25.5 16.5-25.5s16.5 8.93 16.5 25.5c0 15.3-7.615 25.5-16.5 25.5zm0-44.62c-5.077 0-10.154 5.09-10.154 19.12 0 14.03 5.077 19.13 10.154 19.13s10.154-6.38 10.154-19.13c0-14.03-5.077-19.12-10.154-19.12zM424.571 2003.58L413 2007.37v-6.32l18-5.05v48h-6.429v-40.42zM471.286 2031.37V2044h-5.143v-12.63h-21.857l-1.286-3.79 21.857-31.58h6.429v30.32H479v5.05h-7.714zm-6.429-27.79l-15.428 22.74h15.428v-22.74zM489 2046c-2.5 0-5-2.5-5-5s2.5-5 5-5 5 2.5 5 5-2.5 5-5 5zM516.609 2015.1c8.826 0 16.392 5.03 16.392 13.82 0 8.8-6.305 15.08-16.392 15.08-5.044 0-10.087-1.26-12.609-3.77l1.261-6.28c2.522 1.26 7.565 3.77 11.348 3.77 6.304 0 10.087-3.77 10.087-10.05 0-5.03-3.783-8.8-10.087-8.8-3.783 0-7.566 1.26-10.087 2.51l-1.261-1.25 3.782-25.13h23.958v6.28h-18.914l-1.261 13.82c0 1.26 1.261 0 3.783 0zM425.571 2218.74L414 2222.61v-6.45l18-5.16v49h-6.429v-41.26zM472.5 2247.11V2260h-5v-12.89h-21.25l-1.25-3.87 21.25-32.24h6.25v30.95h7.5v5.16h-7.5zm-6.25-28.37l-15 23.21h15v-23.21zM490 2261c-2.5 0-5-2.5-5-5s2.5-5 5-5 5 2.5 5 5-1.25 5-5 5zM519.5 2261c-10.154 0-16.5-8.93-16.5-25.5 0-15.3 6.346-25.5 16.5-25.5s16.5 8.93 16.5 25.5c0 15.3-7.615 25.5-16.5 25.5zm0-44.62c-5.077 0-10.154 5.09-10.154 19.12 0 14.03 5.077 19.12 10.154 19.12s10.154-6.37 10.154-19.12c0-14.03-5.077-19.12-10.154-19.12z" fill="#231F20"/><path d="M729 1557h139v677H729zM910 1484h139v749H910z" fill="#C9D5DA"/><path d="M975 2367v-10.15c18.97-17.77 29.09-25.39 29.09-35.54 0-6.35-3.8-10.16-10.12-10.16-5.058 0-10.117 2.54-13.911 6.35l-3.794-8.88c5.058-3.81 12.647-7.62 20.235-7.62 12.65 0 20.24 7.62 20.24 19.04 0 11.42-8.86 20.31-27.828 35.54H1018v10.15h-43zM1045.37 2370c-13.83 0-21.37-12.69-21.37-33 0-20.31 8.8-33 22.63-33 13.83 0 21.37 12.69 21.37 33 0 20.31-8.8 33-22.63 33zm0-57.11c-6.28 0-11.31 6.34-11.31 24.11s5.03 24.12 11.31 24.12c6.29 0 11.32-6.35 11.32-22.85 0-19.04-5.03-25.38-11.32-25.38zM1094.86 2316.6l-14.86 3.78v-10.08l26-6.3v63h-11.14v-50.4zM1125 2315.08V2305h43v8.82l-27.82 54.18h-11.39l26.56-52.92H1125z" fill="#231F20"/><path d="M1563 1453h139v781h-139zM1744 1362h139v871h-139z" fill="#A6BBC3"/><path d="M1807 2367v-10.15c18.97-17.77 29.09-25.39 29.09-35.54 0-6.35-3.8-10.16-10.12-10.16-5.06 0-10.12 2.54-13.91 6.35l-3.8-8.88c5.06-3.81 12.65-7.62 20.24-7.62 12.65 0 20.24 7.62 20.24 19.04 0 11.42-8.86 20.31-27.83 35.54H1850v10.15h-43zM1877.86 2368c-14.15 0-21.86-12.5-21.86-32.5s9-32.5 23.14-32.5c14.15 0 21.86 12.5 21.86 32.5s-7.71 32.5-23.14 32.5zm0-56.25c-6.43 0-11.57 6.25-11.57 23.75s5.14 23.75 11.57 23.75c6.43 0 11.57-6.25 11.57-22.5 0-18.75-5.14-25-11.57-25zM1927.43 2316.6l-15.43 3.78v-10.08l27-6.3v63h-11.57v-50.4zM1979.07 2368c-14.1 0-23.07-7.58-23.07-17.7 0-7.58 6.41-12.64 12.82-15.17-6.41-2.53-11.54-7.58-11.54-15.17 0-10.11 7.69-18.96 21.79-18.96 14.1 0 20.51 7.58 20.51 17.7 0 7.58-5.13 12.64-11.54 15.17 6.41 2.53 12.82 7.58 12.82 15.17 1.28 10.11-6.41 18.96-21.79 18.96zm-2.56-30.34c-5.13 2.53-8.97 6.32-8.97 11.38 0 6.32 5.12 10.11 11.53 10.11 6.41 0 11.54-3.79 11.54-8.85 0-6.32-5.13-10.11-14.1-12.64zm3.84-26.55c-6.4 0-10.25 3.8-10.25 8.85 0 5.06 5.13 8.85 14.1 11.38 5.13-2.53 7.69-6.32 7.69-10.11-1.28-6.32-6.41-10.12-11.54-10.12z" fill="#231F20"/><path d="M2401 1300h140v934h-140zM2582 1150h139v1084h-139z" fill="#9490A4"/><path d="M2647 2367v-10.15c18.97-17.77 29.09-25.39 29.09-35.54 0-6.35-3.8-10.16-10.12-10.16-5.06 0-10.12 2.54-13.91 6.35l-3.8-8.88c5.06-3.81 12.65-7.62 20.24-7.62 12.65 0 20.24 7.62 20.24 19.04 0 11.42-8.86 20.31-27.83 35.54H2690v10.15h-43zM2717.37 2370c-13.83 0-21.37-12.69-21.37-33 0-20.31 8.8-33 22.63-33 13.83 0 21.37 12.69 21.37 33 0 20.31-8.8 33-22.63 33zm0-57.11c-6.28 0-11.31 6.34-11.31 24.11s5.03 24.12 11.31 24.12c6.29 0 11.32-6.35 11.32-22.85 0-19.04-5.03-25.38-11.32-25.38zM2766.86 2316.6l-14.86 3.78v-10.08l26-6.3v63h-11.14v-50.4zM2806 2370l-2.57-8.92c14.14-2.55 24.43-10.2 27-21.67-3.86 3.83-9 6.37-15.43 6.37-10.29 0-18-7.64-18-19.11 0-12.75 7.71-21.67 21.86-21.67 15.43 0 23.14 12.74 23.14 26.76 0 16.57-12.86 33.14-36 38.24zm12.86-57.35c-6.43 0-10.29 5.09-10.29 11.47 0 6.37 3.86 11.47 10.29 11.47 5.14 0 9-2.55 11.57-5.1v-3.82c0-7.65-3.86-14.02-11.57-14.02z" fill="#231F20"/><path d="M3240 845h139v1389h-139zM3420 887h139v1347h-139z" fill="#595478"/><path d="M1090 1517h139v717h-139z" fill="#C9D5DA"/><path d="M1925 1317h139v917h-139z" fill="#A6BBC3"/><path d="M2762 1052h139v1182h-139z" fill="#9490A4"/><path d="M3601 794h139v1440h-139z" fill="#595478"/><path d="M1271 1434h139v800h-139z" fill="#C9D5DA"/><path d="M2104 1191h139v1043h-139z" fill="#A6BBC3"/><path d="M2943 1021h139v1213h-139z" fill="#9490A4"/><path d="M3782 712h139v1522h-139z" fill="#595478"/><path d="M3496 2367v-10.15c18.97-17.77 29.09-25.39 29.09-35.54 0-6.35-3.8-10.16-10.12-10.16-5.06 0-10.12 2.54-13.91 6.35l-3.8-8.88c5.06-3.81 12.65-7.62 20.24-7.62 12.65 0 20.24 7.62 20.24 19.04 0 11.42-8.86 20.31-27.83 35.54H3539v10.15h-43zM3567.86 2368c-14.15 0-21.86-12.5-21.86-32.5s9-32.5 23.14-32.5c14.15 0 21.86 12.5 21.86 32.5-1.29 20-9 32.5-23.14 32.5zm0-56.25c-6.43 0-11.57 6.25-11.57 23.75s5.14 23.75 11.57 23.75c6.43 0 11.57-6.25 11.57-22.5 0-18.75-5.14-25-11.57-25zM3597 2367v-10.15c18.97-17.77 29.09-25.39 29.09-35.54 0-6.35-3.8-10.16-10.12-10.16-5.06 0-10.12 2.54-13.91 6.35l-3.8-8.88c5.06-3.81 12.65-7.62 20.24-7.62 12.65 0 20.24 7.62 20.24 19.04 0 11.42-8.86 20.31-27.83 35.54H3640v10.15h-43zM3668.86 2368c-14.15 0-21.86-12.5-21.86-32.5s9-32.5 23.14-32.5c14.15 0 21.86 12.5 21.86 32.5-1.29 20-9 32.5-23.14 32.5zm0-56.25c-6.43 0-11.57 6.25-11.57 23.75s5.14 23.75 11.57 23.75c6.43 0 11.57-6.25 11.57-22.5 0-18.75-5.14-25-11.57-25z" fill="#231F20"/><path d="M1491.12 1129.86c3.81 12.63-5.08 24-20.31 29.05-7.62 2.52-15.23 2.52-21.58 1.26l-1.27-11.37c5.08 1.27 12.7 1.27 19.04 0 7.62-2.52 12.7-7.57 11.43-13.89-1.27-6.32-7.62-8.84-17.77-6.32-3.81 1.27-7.62 2.53-10.16 3.79l-2.54-8.84c12.7-6.31 20.31-12.63 19.04-18.94-1.27-5.05-6.34-7.58-12.69-5.05-5.08 1.26-11.42 6.31-13.96 11.36l-6.35-8.84c3.81-5.05 11.42-10.1 19.04-12.63 12.69-3.79 22.85 0 26.66 10.11 2.54 7.57-2.54 15.15-12.7 21.47 13.97-5.06 21.58 1.26 24.12 8.84zM1516.12 1145.68c-5.24 1.24-10.48-1.24-11.79-6.2-1.31-4.96 1.31-8.68 6.55-11.16 5.24-1.24 10.48 1.24 11.79 6.2 1.31 4.96-1.31 9.92-6.55 11.16zM1575.12 1105.66c3.8 12.71-5.05 24.15-20.21 29.23-7.58 2.55-15.17 2.55-21.48 1.28l-1.27-11.44c5.06 1.27 12.64 1.27 18.96 0 7.58-2.54 12.63-7.63 11.37-13.98-1.26-6.36-7.58-8.9-17.69-6.36-3.79 1.27-7.58 2.54-10.11 3.81l-2.53-8.89c12.64-6.36 20.22-12.71 18.96-19.07-1.27-5.08-6.32-7.62-12.64-5.08-5.05 1.27-11.37 6.35-13.9 11.44l-7.58-11.44c3.79-5.08 11.37-10.17 18.95-12.71 12.64-3.81 22.75 0 26.54 10.17 2.53 7.62-2.53 15.25-12.64 21.6 13.9-2.54 22.75 2.55 25.27 11.44zM1597.78 1083.97c-11.39 3.8-21.51-2.53-24.04-12.67-2.53-10.15 1.27-20.29 13.92-24.09 11.38-3.8 21.5 2.54 24.03 13.94 2.54 8.88-2.53 19.02-13.91 22.82zm-8.86-30.42c-6.32 1.27-8.85 7.6-6.32 13.94 1.26 6.34 7.59 10.14 13.91 8.88 6.33-1.27 8.86-7.61 6.33-13.95-2.53-6.34-7.59-10.14-13.92-8.87zm18.98 65.92l-10.12 2.53 35.42-87.46 10.12-2.54-35.42 87.47zm45.55-11.41c-11.39 3.8-21.51-2.54-24.04-13.95-2.53-10.14 1.26-20.28 13.91-24.08 11.39-3.8 21.51 2.53 24.04 12.67 2.53 11.41-2.53 21.55-13.91 25.36zm-8.86-30.43c-6.33 1.27-8.86 7.61-6.33 13.95 2.53 6.34 7.59 10.14 13.92 8.87 6.33-1.27 8.86-7.6 6.33-13.94-2.53-7.61-7.6-11.41-13.92-8.88zM1741.2 1021.71c-6.36-2.52-12.72-2.52-19.08 0-13.99 3.78-19.07 15.14-15.26 30.28 3.82 15.15 15.26 22.72 29.25 17.67 7.63-2.52 12.72-6.31 16.53-11.36l6.36 11.36c-5.09 5.05-12.72 8.83-20.35 11.36-21.62 6.31-39.42-2.53-45.78-25.24-6.36-21.45 3.82-40.38 25.44-46.69 7.63-2.52 16.53-2.52 24.16-1.26l-1.27 13.88zM1794.21 1065.94c-15.13 3.77-27.74-2.52-32.79-18.89-5.04-16.36 3.79-30.21 18.92-33.99 15.13-3.77 27.74 2.52 32.78 18.89 3.78 15.1-5.04 28.95-18.91 33.99zm-12.61-44.07c-8.83 2.52-11.35 10.08-8.83 20.15 2.52 10.07 10.09 15.11 17.66 12.59 8.82-2.52 11.34-10.07 8.82-20.15-2.52-8.81-8.82-15.1-17.65-12.59zM1893.83 1035.01l-8.84-30.38c-2.53-7.592-6.32-8.858-11.38-7.592-5.05 1.265-7.58 5.062-8.85 7.592l1.27 2.53 10.11 32.92-12.64 3.79-8.85-30.38c-2.52-7.59-6.32-8.86-11.37-7.59-5.06 1.26-7.59 3.8-8.85 7.59l10.11 36.71-12.64 3.8-13.9-50.63 12.64-5.067s2.53 6.327 2.53 7.597c3.79-6.331 7.58-10.128 13.9-11.394s12.64 0 16.43 5.063c3.79-6.329 8.85-11.392 15.17-13.924 10.11-2.532 17.69 2.532 20.22 12.658l10.11 34.177-15.17 2.53zM1933.66 967.873c13.83-3.779 25.14 5.038 28.91 20.152 5.03 16.375-3.77 30.225-17.6 34.005-3.77 1.26-7.54 1.26-11.31 1.26l6.28 23.93-12.57 3.78-21.37-74.311 12.57-5.038 1.26 6.298c5.03-3.779 8.8-8.817 13.83-10.076zm-1.26 44.087c2.51 1.25 6.29 1.25 10.06 0 8.8-2.52 11.31-11.34 8.8-20.157-2.52-10.076-8.8-15.114-17.6-12.595-3.77 1.26-7.55 3.779-8.8 7.557l7.54 25.195zM2006.84 1003.94c-15.41 3.77-28.25-2.52-33.39-18.886-5.14-16.366 3.85-30.215 19.27-33.992 15.41-3.776 28.25 2.518 33.39 18.884 3.85 16.367-5.14 30.214-19.27 33.994zM1994 961.134c-8.99 2.518-11.56 10.071-8.99 20.143 2.57 10.071 10.27 15.107 17.98 12.589 8.99-2.518 11.56-10.071 7.7-20.143-1.28-10.071-8.99-15.107-16.69-12.589zM2042.25 938.225l8.9 30.674c2.54 7.669 6.35 8.947 11.43 7.669 5.09-1.279 7.63-5.113 10.17-7.669l-11.44-37.064 12.71-3.835 13.98 51.124-12.71 5.112-2.54-7.668c-2.54 6.39-7.62 10.224-13.98 12.781-10.17 2.556-17.79-2.557-21.6-12.781L2027 942.059l15.25-3.834zM2136.02 965.053l-8.89-30.674c-2.55-7.669-6.36-8.947-11.44-7.669-5.09 1.278-7.63 5.113-10.17 7.669l10.17 35.786-12.71 3.835-13.98-51.124 12.71-5.112 2.54 7.668c2.54-6.39 7.63-11.502 13.98-12.781 10.17-2.556 17.79 2.556 21.6 12.781l10.17 34.509-13.98 5.112zM2175.9 875.038l12.63-5.038 21.47 74.311-12.63 3.778s-1.26-3.778-1.26-5.038c-2.53 3.779-6.32 8.817-12.63 10.076-13.89 3.779-25.26-5.038-29.04-20.152-5.06-16.373 3.78-30.228 17.68-34.006 3.78-1.26 7.57-1.26 11.36-1.26l-7.58-22.671zm-1.26 34.007c-8.84 2.519-11.36 11.335-8.84 20.152 2.53 10.076 10.1 15.114 17.68 12.595 3.79-1.26 7.58-3.779 8.84-7.557l-7.58-25.19c-2.52-1.26-6.31-1.26-10.1 0zM2308 915.281l-13.91 3.797-10.11-15.187-27.81 7.593-1.26 17.719L2241 933l5.06-75.937 16.43-5.063 45.51 63.281zm-49.3-46.828l-1.27 32.906 20.23-6.328-18.96-26.578zM2350.02 904.198l-8.89-30.18c-2.55-7.545-6.36-8.802-11.44-7.545-5.09 1.258-7.63 5.03-10.17 7.545l10.17 35.209-12.71 3.773-13.98-50.299 12.71-5.03 2.54 7.545c2.54-6.287 7.63-11.317 13.98-12.575 10.17-2.515 17.79 2.515 21.6 12.575l10.17 33.952-13.98 5.03zM2410.25 886.198l-8.75-30.18c-2.5-7.545-6.25-8.802-11.25-7.545-5 1.258-7.5 5.03-10 7.545l10 35.21-12.5 3.772-13.75-50.299 12.5-5.03 2.5 7.545c2.5-6.288 7.5-11.318 13.75-12.575 10-2.515 17.5 2.515 21.25 12.575l10 33.952-13.75 5.03zM2433.98 824.225l8.9 30.674c2.54 7.669 6.35 8.947 11.43 7.669 5.09-1.278 7.63-5.112 10.17-7.669l-10.17-37.065 12.71-3.834 13.98 51.124-12.71 5.113-2.54-7.669c-2.54 6.39-7.63 10.225-13.98 12.781-10.17 2.556-17.79-2.556-21.6-12.781L2420 828.059l13.98-3.834zM2521.85 848.823c-2.55 5.07-6.38 10.139-12.77 11.407-8.93 2.534-17.87-1.268-20.42-10.139-2.55-8.872 1.28-19.01 25.53-26.614v-1.268c-2.55-6.336-5.11-8.871-12.76-6.336-5.11 1.267-10.22 5.069-15.32 10.138l-5.11-8.871c3.83-5.069 11.49-10.139 19.15-11.406 15.32-5.069 24.25 1.267 28.08 15.208l5.11 17.743c1.28 3.802 2.55 3.802 6.38 3.802l1.28 10.139c-10.21 1.267-15.32 0-19.15-3.803zm-5.11-17.742c-12.76 5.069-16.59 8.871-14.04 13.941 1.28 3.801 5.11 6.336 8.94 3.801 3.83-1.267 6.38-3.801 8.93-7.604l-3.83-10.138zM2550.41 846L2529 773.032l12.59-5.032 21.41 74.226-12.59 3.774zM2636.96 823.139c-21.76 6.32-39.68-3.791-46.08-25.279-6.4-21.487 3.84-40.446 25.6-46.766 8.96-2.528 19.2-2.528 25.6-1.264l-1.28 12.64c-7.68-2.528-15.36-2.528-21.76 0-14.08 3.792-20.48 15.167-15.36 30.335 3.84 15.167 15.36 22.751 29.44 18.959 5.12-1.264 8.96-3.792 12.8-6.32l-3.84-12.639-17.92 5.055-3.84-11.375 30.72-8.848 8.96 31.599c-5.12 6.32-14.08 11.375-23.04 13.903zM2688.25 807.185l-12.5 3.815-13.75-50.872 12.5-5.087 2.5 7.631c1.25-6.359 5-10.174 10-12.718 2.5-1.272 6.25-1.272 10 0v12.718h-7.5c-5 1.272-7.5 5.087-8.75 12.718l7.5 31.795zM2743.21 792.938c-15.13 3.777-27.74-2.518-32.78-18.884-5.05-16.366 3.78-30.215 18.91-33.992 15.13-3.777 27.74 2.518 32.78 18.884 3.78 16.367-5.04 30.215-18.91 33.992zm-12.61-44.063c-8.83 2.518-11.35 10.071-8.83 20.143 2.52 10.072 10.09 15.107 17.66 12.589 8.82-2.517 11.34-10.071 7.56-20.143-1.26-8.812-8.83-13.848-16.39-12.589zM2788.31 778L2759 730.909l14.02-3.818 19.11 33.091V722l12.74-3.818L2826.53 750l-2.55-38.182L2838 708v54.727l-12.74 3.819-21.66-31.819-1.28 39.455-14.01 3.818zM2881.25 752.594c-11.48 3.8-19.13 0-21.67-12.665l-6.38-24.065-7.65 1.267-2.55-8.866 7.65-5.067-2.55-11.398 12.75-3.8 3.83 11.399 14.02-3.8 2.55 10.133-15.3 3.799 6.38 24.065c1.27 5.066 3.82 6.333 8.92 5.066l7.65-3.8 5.1 10.133c-5.1 5.066-8.92 6.333-12.75 7.599zM2935.36 736.081l-8.85-30.581c-2.53-7.645-6.32-8.92-11.38-7.645-5.05 1.274-8.85 5.096-10.11 7.645l10.11 35.677-12.64 3.823-21.49-73.903 12.64-5.097 8.85 30.58c2.53-6.37 7.59-11.467 15.17-12.742 10.11-2.548 17.7 2.549 20.23 12.742l10.11 34.404-12.64 5.097zM3001.32 717.184L2987.34 721 2967 652.31l24.15-6.36c17.8-5.088 29.24 0 33.05 12.72 2.55 10.176-1.27 17.808-8.89 24.169l26.69 22.896-15.25 3.817-22.89-20.353-10.17 3.816 7.63 24.169zm-1.27-38.161c7.63-2.545 12.71-7.633 10.17-15.265-2.54-7.632-8.9-8.904-17.8-6.36l-8.89 2.544 6.35 22.897 10.17-3.816zM3075.85 688.823c-2.55 5.07-6.38 10.139-12.77 11.406-8.93 2.535-17.87-1.267-20.42-10.138-2.55-8.872 1.28-19.01 25.53-26.614v-1.268c-2.55-6.336-5.11-8.871-12.76-6.336-5.11 1.267-10.22 5.069-15.32 10.138l-5.11-8.871c3.83-5.07 11.49-10.139 19.15-11.406 15.32-5.069 24.25 1.267 28.08 15.208l5.11 17.743c1.28 3.802 2.55 3.802 6.38 3.802l1.28 10.138c-10.21 1.268-15.32 0-19.15-3.802zm-5.11-19.01c-12.76 5.07-16.59 8.872-14.04 13.941 1.28 3.802 5.11 6.337 8.94 3.802 3.83-1.267 6.38-3.802 8.93-7.604l-3.83-10.139zM3122.5 682.594c-11.25 3.8-18.75 0-21.25-12.665l-6.25-24.065-7.5 1.267-2.5-8.866 7.5-5.066-2.5-11.399 12.5-3.8 3.75 11.399 13.75-3.8 2.5 10.133-15 3.8 6.25 24.064c1.25 5.066 3.75 6.333 8.75 5.066l7.5-3.799 5 10.132c-3.75 5.066-7.5 6.333-12.5 7.599zM3146.35 649.493c2.51 7.583 10.04 12.639 18.83 8.847 5.02-1.264 10.04-5.056 13.8-8.847l5.02 10.111c-3.76 3.792-10.04 7.584-17.57 8.848-16.31 5.056-30.12-2.528-33.88-18.959-5.02-16.432 2.51-30.335 17.57-35.391 13.8-3.791 22.59 2.528 26.35 13.904 1.26 2.527 1.26 6.319 1.26 8.847 1.25 2.528-31.38 12.64-31.38 12.64zm20.08-13.904s0-1.264 0 0c-2.51-7.583-6.27-11.375-12.55-8.847-7.53 2.527-10.04 8.847-8.78 15.167l21.33-6.32z" fill="#FFF"/><path d="M660 206v-95h19v95h-19zM744.36 206v-42.947c0-10.105-3.78-13.895-12.6-13.895-6.3 0-11.34 3.79-15.12 6.316v49.263H699v-68.211L716.64 134v11.369c6.3-6.316 15.12-11.369 22.68-11.369 13.86 0 22.68 8.842 22.68 24v48h-17.64zM812.854 208C789.979 208 776 194.204 776 171.627 776 149.051 791.25 134 812.854 134c10.167 0 17.792 2.509 24.146 6.271l-2.542 13.797c-6.354-3.763-12.708-5.017-19.062-5.017-12.709 0-20.334 8.78-20.334 22.576 0 13.797 7.625 22.577 20.334 22.577 7.625 0 13.979-2.509 19.062-5.017l2.542 15.05c-5.083 1.255-13.979 3.763-24.146 3.763zM869.684 206H852v-69.474L869.684 134v11.369C873.474 137.79 879.79 134 887.369 134c3.789 0 8.842 1.263 12.631 3.79l-3.789 16.42c-3.79-1.262-6.316-2.526-10.105-2.526-6.316 0-11.369 3.79-16.422 12.632V206zM923.769 175.136c1.269 11.288 8.885 18.813 21.577 18.813 7.616 0 15.231-2.508 21.577-6.271l2.539 15.051c-6.346 3.763-16.5 6.271-25.385 6.271C921.231 209 906 195.204 906 172.627 906 150.051 921.231 135 942.808 135 961.846 135 972 146.288 972 162.593c0 3.763 0 8.78-1.269 11.288-1.269 0-46.962 0-46.962 1.255zm30.462-11.288s0-1.255 0 0c0-10.034-3.808-16.306-13.961-16.306-10.155 0-15.232 7.526-16.501 16.306h30.462zM1022.88 197.799c-5.07 6.255-11.42 10.008-20.3 10.008-12.695 0-21.58-8.757-21.58-20.015 0-12.51 8.885-23.769 41.88-25.02v-1.251c0-8.756-3.8-13.76-13.96-13.76-7.61 0-15.228 3.753-22.843 7.506l-3.808-13.761c6.346-3.753 17.771-7.506 29.191-7.506 21.58 0 30.46 10.008 29.19 28.772v25.02c0 5.003 1.27 6.255 6.35 6.255l-1.27 13.76c-12.69 1.251-19.04-3.753-22.85-10.008zm0-25.019c-17.76 2.502-24.111 5.004-24.111 12.51 0 5.004 3.811 8.757 10.151 8.757 5.08 0 10.16-2.502 13.96-6.255V172.78zM1080.73 208c-8.91 0-20.37-2.517-26.73-6.293l3.82-13.845c7.63 3.776 16.54 6.293 24.18 6.293 7.64 0 11.45-2.517 11.45-7.552 0-5.034-6.36-7.551-14-8.81-12.72-2.517-24.18-8.81-24.18-21.396s11.46-21.397 28-21.397c8.91 0 19.09 2.517 25.46 5.035l-3.82 13.844c-7.64-3.776-16.55-6.293-22.91-6.293-6.36 0-10.18 2.517-10.18 7.552 0 5.034 6.36 7.552 14 8.81 14 3.776 24.18 8.811 24.18 21.397 0 12.586-11.45 22.655-29.27 22.655zM1134 123.771c-7.33 0-11-3.795-11-11.385 0-6.326 3.67-11.386 11-11.386s11 3.795 11 11.386c0 6.325-4.89 11.385-11 11.385zM1125.44 206v-69.578l17.12-2.531V206h-17.12zM1207.36 206v-42.947c0-10.105-3.78-13.895-12.6-13.895-6.3 0-11.34 3.79-15.12 6.316v49.263H1162v-68.211l17.64-2.526v11.369c6.3-6.316 15.12-11.369 22.68-11.369 13.86 0 22.68 8.842 22.68 24v48h-17.64zM1239.81 196.791c0-6.279 5.09-12.558 12.72-15.07-7.63-3.767-12.72-11.302-12.72-21.349 0-13.814 11.44-26.372 30.51-26.372 7.63 0 15.26 2.512 20.34 3.768l19.07-1.256 1.27 15.069-13.98-2.511c1.27 2.511 3.81 7.535 3.81 11.302 0 13.814-11.44 25.116-29.24 25.116-3.81 0-6.35 0-10.17-1.255-2.54 1.255-5.08 3.767-5.08 6.279 0 3.767 3.81 5.023 13.98 5.023h7.63c20.34 0 31.78 5.023 31.78 18.837 0 16.326-19.07 27.628-40.68 27.628-19.07 0-33.05-6.279-33.05-18.837 0-7.535 5.08-13.814 15.25-15.07-7.62-1.256-11.44-6.279-11.44-11.302zm11.44 23.86c0 6.279 7.63 11.303 20.34 11.303 12.72 0 21.61-5.024 21.61-11.303 0-6.279-6.35-7.534-19.06-7.534h-13.99c-5.08 0-8.9 2.511-8.9 7.534zm19.07-46.465c7.63 0 12.71-6.279 12.71-15.07 0-8.79-3.81-13.813-13.98-13.813-7.63 0-12.71 6.278-12.71 15.069 1.27 8.791 6.35 13.814 13.98 13.814zM1390.88 197.799c-5.07 6.255-11.42 10.008-20.3 10.008-12.7 0-21.58-8.757-21.58-20.015 0-12.51 8.88-23.769 41.88-25.02v-1.251c0-8.756-3.8-13.76-13.96-13.76-7.61 0-15.23 3.753-22.84 7.506l-3.81-13.761c6.35-3.753 17.77-7.506 29.19-7.506 21.58 0 30.46 10.008 29.19 28.772v25.02c0 5.003 1.27 6.255 6.35 6.255l-1.27 13.76c-12.69 1.251-19.04-3.753-22.85-10.008zm0-25.019c-17.76 2.502-24.11 5.004-24.11 12.51 0 5.004 3.81 8.757 10.15 8.757 5.08 0 10.16-2.502 13.96-6.255V172.78zM1473.08 206v-42.947c0-10.105-3.84-13.895-12.8-13.895-6.4 0-11.52 3.79-15.36 6.316v49.263H1427v-68.211l17.92-2.526v11.369c6.4-6.316 15.36-11.369 23.04-11.369 14.08 0 23.04 8.842 23.04 24v48h-17.92zM1534.67 208c-15.08 0-23.88-6.286-22.62-23.886l1.26-32.685-11.31-1.258v-11.314l11.31-3.771V120h16.33v16.343h20.1v15.086h-20.1l-1.26 32.685c0 6.286 3.77 10.058 8.8 10.058 3.77 0 7.54-1.258 11.31-2.515l2.51 15.086c-6.28 0-11.31 1.257-16.33 1.257zM1573 123.771c-7.33 0-11-3.795-11-11.385 0-6.326 3.67-11.386 11-11.386s11 3.795 11 11.386c0 6.325-3.67 11.385-11 11.385zM1564.44 206v-69.578l17.12-2.531V206h-17.12zM1638.78 134c18.89 0 30.22 15.181 30.22 36.687 0 22.771-15.11 37.952-35.26 37.952-5.04 0-10.07 0-15.11-2.53V239H1601V136.53l17.63-2.53v8.856c5.04-3.796 11.33-8.856 20.15-8.856zm-20.15 55.663c3.78 2.53 7.56 3.795 12.59 3.795 11.34 0 18.89-10.121 18.89-22.771 0-13.916-6.3-22.771-17.63-22.771-6.29 0-10.07 2.53-13.85 6.325v35.422zM1705.6 208c-8.87 0-20.27-2.517-26.6-6.293l3.8-13.845c7.6 3.776 16.47 6.293 24.07 6.293 7.6 0 11.4-2.517 11.4-7.552 0-5.034-6.34-7.551-13.94-8.81-12.66-2.517-24.06-8.81-24.06-21.396S1691.67 135 1708.13 135c8.87 0 19 2.517 25.34 5.035l-3.8 13.844c-6.34-3.776-15.2-6.293-21.54-6.293-6.33 0-10.13 2.517-10.13 7.552 0 5.034 6.33 7.552 13.93 8.81 13.94 3.776 24.07 8.811 24.07 21.397-1.27 12.586-12.67 22.655-30.4 22.655zM1785.58 204.219l-3.82 11.415c-7.62 19.025-15.25 25.366-27.96 25.366-6.36 0-12.72-1.268-17.8-3.805l5.08-15.219c3.82 2.536 7.63 3.805 11.45 3.805 5.08 0 7.62-2.537 11.44-11.415l2.54-7.61L1738.54 137h19.07l17.8 50.732L1791.93 137H1811l-25.42 67.219zM1853.85 208c-22.87 0-36.85-13.796-36.85-36.373 0-22.576 15.25-37.627 36.85-37.627 10.17 0 17.8 2.509 24.15 6.271l-3.81 13.797c-6.36-3.763-12.71-5.017-19.06-5.017-12.71 0-20.34 8.78-20.34 22.576 0 13.797 7.63 22.577 20.34 22.577 7.62 0 13.97-2.509 19.06-5.017l2.54 15.05c-5.08 1.255-13.98 3.763-22.88 3.763zM1937.36 206v-43.012c0-10.121-3.78-13.916-11.34-13.916-6.3 0-12.6 3.795-16.38 6.325v49.338H1892V103.53l17.64-2.53v43.012c6.3-6.325 15.12-11.385 23.94-11.385 13.86 0 21.42 8.855 21.42 24.036v48.072h-17.64zM2005.37 208c-20.21 0-35.37-13.796-35.37-36.373 0-22.576 15.16-37.627 36.63-37.627 20.21 0 35.37 13.797 35.37 37.627 0 22.577-16.42 36.373-36.63 36.373zm0-60.203c-11.37 0-17.69 8.779-17.69 22.576s6.32 22.576 18.95 22.576c11.37 0 17.69-8.779 17.69-22.576s-7.58-22.576-18.95-22.576zM2081.5 208c-15 0-23.75-6.286-22.5-23.886l1.25-32.685-11.25-1.258v-11.314l11.25-3.771V120h17.5v16.343h20v15.086h-20l-1.25 32.685c0 6.286 3.75 10.058 8.75 10.058 3.75 0 7.5-1.258 11.25-2.515l2.5 15.086c-6.25 0-11.25 1.257-17.5 1.257zM2120.5 123.771c-7.67 0-11.5-3.795-11.5-11.385 0-6.326 3.83-11.386 11.5-11.386s11.5 3.795 11.5 11.386c-1.28 6.325-5.11 11.385-11.5 11.385zM2111.56 206v-69.578l17.88-2.531V206h-17.88zM2179.85 208c-22.87 0-36.85-13.796-36.85-36.373 0-22.576 15.25-37.627 36.85-37.627 10.17 0 17.8 2.509 24.15 6.271l-3.81 13.797c-6.36-3.763-12.71-5.017-19.06-5.017-12.71 0-20.34 8.78-20.34 22.576 0 13.797 7.63 22.577 20.34 22.577 7.62 0 13.97-2.509 19.06-5.017l2.54 15.05c-3.81 1.255-12.71 3.763-22.88 3.763zM2291.33 134c19.17 0 30.67 15.181 30.67 36.687 0 22.771-15.33 37.952-35.78 37.952-5.11 0-10.22 0-15.33-2.53V239H2253V136.53l17.89-2.53v8.856c6.39-3.796 12.78-8.856 20.44-8.856zm-19.16 55.663c3.83 2.53 7.66 3.795 12.77 3.795 11.5 0 19.17-10.121 19.17-22.771 0-13.916-6.39-22.771-17.89-22.771-6.39 0-10.22 2.53-14.05 6.325v35.422zM2355.68 206H2338v-69.474l17.68-2.526v11.369c3.79-7.579 10.11-11.369 17.69-11.369 3.79 0 8.84 1.263 12.63 3.79l-3.79 16.42c-3.79-1.262-6.32-2.526-10.1-2.526-6.32 0-11.37 3.79-16.43 12.632V206zM2408.77 175.136c1.27 11.288 8.88 18.813 21.58 18.813 7.61 0 15.23-2.508 21.57-6.271l2.54 15.051c-6.34 3.763-16.5 6.271-25.38 6.271-22.85 0-38.08-13.796-38.08-36.373 0-22.576 15.23-37.627 36.81-37.627 19.04 0 29.19 11.288 29.19 27.593 0 3.763 0 8.78-1.27 11.288-1.27 0-46.96 0-46.96 1.255zm30.46-11.288s0-1.255 0 0c0-10.034-3.81-16.306-13.96-16.306s-15.23 7.526-16.5 16.306h30.46zM2493.73 208c-8.91 0-20.37-2.517-26.73-6.293l3.82-13.845c7.63 3.776 16.54 6.293 24.18 6.293 7.64 0 11.45-2.517 11.45-7.552 0-5.034-6.36-7.551-14-8.81-12.72-2.517-24.18-8.81-24.18-21.396s11.46-21.397 28-21.397c8.91 0 19.09 2.517 25.46 5.035l-5.09 13.844c-6.37-3.776-15.28-6.293-21.64-6.293-6.36 0-10.18 2.517-10.18 7.552 0 5.034 6.36 7.552 14 8.81 14 3.776 24.18 8.811 24.18 21.397 0 12.586-11.45 22.655-29.27 22.655zM2569.85 208c-22.87 0-36.85-13.796-36.85-36.373 0-22.576 15.25-37.627 36.85-37.627 10.17 0 17.8 2.509 24.15 6.271l-3.81 13.797c-6.36-3.763-12.71-5.017-19.07-5.017-12.7 0-20.33 8.78-20.33 22.576 0 13.797 7.63 22.577 20.33 22.577 7.63 0 13.98-2.509 19.07-5.017l2.54 15.05c-5.08 1.255-13.98 3.763-22.88 3.763zM2626.68 206H2609v-69.474l17.68-2.526v11.369c3.79-7.579 10.11-11.369 17.69-11.369 3.79 0 8.84 1.263 12.63 3.79l-3.79 16.42c-3.79-1.262-6.32-2.526-10.1-2.526-6.32 0-11.37 3.79-16.43 12.632V206zM2677.5 123.771c-7.67 0-11.5-3.795-11.5-11.385 0-6.326 3.83-11.386 11.5-11.386s11.5 3.795 11.5 11.386c-1.28 6.325-5.11 11.385-11.5 11.385zM2668.56 206v-69.578l17.88-2.531V206h-17.88zM2741.78 134c18.89 0 30.22 15.181 30.22 36.687 0 22.771-15.11 37.952-35.26 37.952-5.04 0-10.07 0-15.11-2.53V239H2704V136.53l17.63-2.53v8.856c6.3-3.796 12.59-8.856 20.15-8.856zm-18.89 55.663c3.78 2.53 7.55 3.795 12.59 3.795 11.33 0 18.89-10.121 18.89-22.771 0-13.916-6.3-22.771-17.63-22.771-6.3 0-10.07 2.53-13.85 6.325v35.422zM2812.67 208c-15.08 0-23.88-6.286-22.62-23.886l1.26-32.685-11.31-1.258v-11.314l11.31-3.771V120h17.59v16.343h20.1v15.086h-21.36l-1.26 32.685c0 6.286 3.77 10.058 8.8 10.058 3.77 0 7.54-1.258 11.31-2.515l2.51 15.086c-5.03 0-10.05 1.257-16.33 1.257zM2851.5 123.771c-7.67 0-11.5-3.795-11.5-11.385 0-6.326 3.83-11.386 11.5-11.386s11.5 3.795 11.5 11.386c-1.28 6.325-5.11 11.385-11.5 11.385zM2842.56 206v-69.578l17.88-2.531V206h-17.88zM2911.37 208c-20.21 0-35.37-13.796-35.37-36.373 0-22.576 15.16-37.627 36.63-37.627 20.21 0 35.37 13.797 35.37 37.627-1.26 22.577-16.42 36.373-36.63 36.373zm0-60.203c-11.37 0-17.69 8.779-17.69 22.576s6.32 22.576 18.95 22.576c11.37 0 17.69-8.779 17.69-22.576s-7.58-22.576-18.95-22.576zM3007.36 206v-42.947c0-10.105-3.78-13.895-12.6-13.895-6.3 0-11.34 3.79-15.12 6.316v49.263H2962v-68.211l17.64-2.526v11.369c6.3-6.316 15.12-11.369 22.68-11.369 13.86 0 22.68 8.842 22.68 24v48h-17.64zM3065.73 208c-8.91 0-20.37-2.517-26.73-6.293l3.82-13.845c7.63 3.776 16.54 6.293 24.18 6.293 7.64 0 11.45-2.517 11.45-7.552 0-5.034-6.36-7.551-14-8.81-12.72-2.517-24.18-8.81-24.18-21.396s11.46-21.397 28-21.397c8.91 0 19.09 2.517 25.46 5.035l-3.82 13.844c-7.64-3.776-16.55-6.293-22.91-6.293-6.36 0-10.18 2.517-10.18 7.552 0 5.034 6.36 7.552 14 8.81 14 3.776 24.18 8.811 24.18 21.397 0 12.586-11.45 22.655-29.27 22.655zM3118.53 163.755c-7.52 0-12.53-5.057-12.53-11.378 0-6.32 5.01-11.377 12.53-11.377s11.28 5.057 11.28 11.377c1.25 6.321-3.76 11.378-11.28 11.378zm0 44.245c-7.52 0-12.53-5.057-12.53-11.377 0-6.321 5.01-11.378 12.53-11.378s11.28 5.057 11.28 11.378c1.25 6.32-3.76 11.377-11.28 11.377zM3179 206v-13.983c22.78-15.254 39.22-25.424 39.22-35.593 0-6.356-5.06-10.17-12.65-10.17-7.59 0-13.92 3.814-21.51 8.899l-5.06-13.984c7.59-6.355 18.98-10.169 30.37-10.169 17.71 0 29.1 8.898 29.1 22.881 0 15.255-12.65 24.153-32.9 36.865H3241V206h-62zM3288.25 208c-22.5 0-36.25-15.2-36.25-38s15-38 37.5-38 37.5 15.2 37.5 38c-1.25 22.8-16.25 38-38.75 38zm0-62.067c-11.25 0-20 8.867-20 24.067 0 13.933 7.5 24.067 20 24.067 11.25 0 20-8.867 20-24.067s-7.5-24.067-20-24.067zM3354 151.068l-18 5.085v-15.255l36-8.898v75h-18v-55.932zM3389 150.334V134h66v12.564L3413.12 232h-17.77l40.61-82.923H3389zM3463 177v-16h43v16h-43zM3516 206v-13.983c22.78-15.254 39.22-25.424 39.22-35.593 0-6.356-5.06-10.17-12.65-10.17-7.59 0-13.92 3.814-21.51 8.899l-5.06-13.984c7.59-6.355 18.98-10.169 30.37-10.169 17.71 0 29.1 8.898 29.1 22.881 0 15.255-12.65 24.153-32.9 36.865H3578V206h-62zM3625.73 208c-22.8 0-36.73-15.2-36.73-38s15.2-38 38-38 38 15.2 38 38c-1.27 22.8-16.47 38-39.27 38zm0-62.067c-11.4 0-20.26 8.867-20.26 24.067 0 13.933 7.6 24.067 20.26 24.067 11.4 0 20.27-8.867 20.27-24.067s-8.87-24.067-20.27-24.067zM3675 206v-13.983c22.78-15.254 39.22-25.424 39.22-35.593 0-6.356-5.06-10.17-12.65-10.17-7.59 0-13.92 3.814-21.51 8.899l-5.06-13.984c7.59-6.355 18.98-10.169 30.37-10.169 17.71 0 29.1 8.898 29.1 22.881 0 15.255-12.65 24.153-32.9 36.865H3737V206h-62zM3783.73 208c-22.8 0-36.73-15.2-36.73-38s15.2-38 38-38 38 15.2 38 38c-1.27 22.8-16.47 38-39.27 38zm1.27-62.067c-11.4 0-20.27 8.867-20.27 24.067 0 13.933 7.6 24.067 20.27 24.067 11.4 0 20.27-8.867 20.27-24.067-1.27-15.2-8.87-24.067-20.27-24.067zM3862 153.7c0 10.2-8.61 15.3-18.46 15.3-4.92 0-9.85-1.275-13.54-3.825l1.23-7.65c3.69 2.55 7.39 3.825 12.31 3.825 6.15 0 9.85-2.55 9.85-7.65 0-5.1-3.7-6.375-8.62-6.375h-6.15v-6.375c7.38-1.275 13.53-3.825 13.53-8.925 0-3.825-2.46-6.375-7.38-6.375-3.69 0-7.39 1.275-11.08 3.825l-2.46-6.375c3.69-2.55 8.62-5.1 14.77-5.1 8.62 0 14.77 5.1 14.77 12.75 0 5.1-3.69 10.2-9.85 11.475 7.39 1.275 11.08 6.375 11.08 11.475z" fill="#1F213D"/></g></svg>