<svg width="3850" height="738" xmlns="http://www.w3.org/2000/svg" overflow="hidden"><defs><clipPath id="a"><path d="M320 875h3850v738H320z"/></clipPath></defs><g clip-path="url(#a)" transform="translate(-320 -875)" fill-rule="evenodd"><path d="M427.727 1007l-99.83 21.2L325 938.241 536 895v445H427.727v-333zM884.421 1236.48V1340h-92.45v-103.52H607.984l-4.984-71.6L761.486 899h122.935v256.68h50.42l2.159 80.8h-52.579zm-89.543-258.082L688.971 1159.24h105.907V978.398zM1032.37 1350c-40.438 0-67.37-26.28-67.37-64.5 0-39.05 26.932-64.5 67.37-64.5 39.7 0 66.63 25.53 66.63 64.5 0 38.3-26.93 64.5-66.63 64.5zM1150.56 1339.92l-2.15-75.77C1278.66 1140.18 1336 1097.7 1336 1037.5c0-31.88-24.08-55.978-59.49-55.978-34.68 0-68.69 17.721-96.24 41.078L1147 944.672c36.82-28.32 91.27-51.672 147.96-51.672 95.58 0 147.21 55.979 147.21 128.19 0 76.51-57.34 131.75-174.1 230.95h184.78L1455 1340h-304.44zM1736.96 935.821l-40.91 141.189h-50.77l-40.9-140.939-1.16 143.929H1559l6.55-187h67.2l38.83 140.35L1710.41 893h66.29l6.3 187h-45.05l-.99-144.179zM1822 1080V893h48v187h-48zM1912 1080V893h47.19v147.17H2037V1080h-125zM2064 1080V893h47.57v147.17H2190V1080h-126zM2217 1080V893h48v187h-48zM2395.54 1084c-55.38 0-97.54-34.25-97.54-97.045 0-58.905 42.49-97.955 98.12-97.955 55.64 0 97.88 33.92 97.88 96.714 0 58.986-42.83 98.286-98.46 98.286zm0-156.86c-31.68 0-49.64 23.826-49.64 58.657 0 35.743 18.54 60.143 50.56 60.143 31.43 0 49.64-24.07 49.64-58.902 0-35.823-18.79-59.898-50.56-59.898zM2656.38 893H2701v188h-50.62l-78.76-122.49v120.67H2527V893h51.53l77.85 121V893zM1749 1344h-50.42l-14.65-42.55h-74.1l-14.41 42.55H1545l70.87-200h63.58l69.55 200zm-101.83-160.6l-26.5 78.39h52.08l-25.58-78.39zM1844.84 1344H1773v-200h75.33c70.59 0 110.67 39.07 110.67 98.55.08 61.47-40.66 101.45-114.16 101.45zm.33-159.35h-21.2v118.7h23.78c36.92 0 59.95-18.91 59.95-58.89 0-41.23-20.79-59.81-62.53-59.81zM2079.38 1348c-52.4 0-88.38-25.53-88.38-81.63V1144h50.73v115.67c0 30 12.24 45.61 38.89 45.61 24.08 0 36.65-12.72 36.65-43.62v-117.58H2168v117.91c.08 57.67-34.65 86.01-88.62 86.01zM2211 1344v-200h50.96v157.45H2346V1344h-135zM2449.39 1186.55V1344h-50.78v-157.45H2335V1144h178v42.55h-63.61zM2641.43 1287.63c0-13.36-14.42-17.82-40.95-25.16-29.1-7.91-64.25-21.27-64.25-61.11 0-36.87 27.19-61.36 76.77-61.36 31.33 0 55.62 7.01 74.86 17.48l-9.95 41.65c-19.82-10.47-44.77-17.48-64.58-17.48-17.58 0-26.2 6.02-26.2 16.82 0 13.04 18.24 18.15 42.2 24.83 30.67 8.25 62.67 22.27 62.67 60.12 0 37.86-29.43 64.58-81.9 64.58-29.76 0-58.53-7.67-77.1-18.14l9.62-41.98c19.81 10.47 43.77 18.47 68.39 18.47 17.9.08 30.42-6.6 30.42-18.72z" fill="#595478"/><path d="M394.5 1459.37c-9.974 0-14.5-7.47-14.5-15.69 0-8.21 4.526-15.68 14.5-15.68s14.5 7.47 14.5 15.68c0 8.22-4.526 15.69-14.5 15.69zM383.52 1608v-122.32l22.044-3.49V1608H383.52zM521.203 1608v-76.71c0-21.03-7.987-28.26-25.292-28.26-12.812 0-25.042 6.65-32.03 13.3v91.59H442v-122.43l21.881-3.49v18.37c11.231-11.22 25.624-18.37 39.684-18.37 24.793 0 39.435 15.71 39.435 42.06v83.86h-21.797zM681.724 1612c-23.629 0-36.147-11.4-35.318-37.84l1.823-67.74L628 1505.1l.829-13.8 20.229-6.11.498-26.19h20.976l-.829 27.76h37.971l-.829 19.58h-37.972l-1.824 68.57c-.249 11.4 5.058 17.18 15.918 17.18 7.462 0 14.841-1.82 22.054-4.46.248 0 3.98 19.08 3.98 19.08-8.955 3.47-18.24 5.29-27.277 5.29zM813.203 1608v-76.25c0-20.9-7.987-28.09-23.961-28.09-14.143 0-26.373 6.61-33.362 13.22v91.04H734v-178.45l21.88-3.47v74.35c11.232-11.15 25.625-17.76 41.016-17.76 23.462 0 38.104 15.62 38.104 41.8v83.36h-21.797zM886.066 1550.74c.833 23.94 16.82 40.98 40.302 40.98 12.824 0 26.646-3.49 36.555-10.14l3.997 20.28c-10.908 6.65-25.647 10.14-41.051 10.14-36.805 0-61.869-26.35-61.869-63.67 0-39.4 26.146-66.33 60.286-66.33 29.644 0 46.714 18.62 46.714 47.71 0 6.65-1.082 14.13-2.664 19.45-.25 0-82.187.5-82.187.5v1.08zm63.784-17.54v-1.83c0-18.12-8.577-30.09-27.728-30.09-20.818 0-33.058 16.54-34.974 32.5l62.702-.58zM1132.25 1612c-41.97 0-65.25-25.78-65.25-65.56V1442h22.45v100.96c0 30 14.43 47.82 44.13 47.82 25.95 0 41.98-15.17 41.98-46.25V1442H1198v101.95c0 42.02-21.94 68.05-65.75 68.05zM1320.19 1563.98c0-17-12.76-23.39-39.87-30.6-23.63-6.39-49.67-16.51-49.67-48.6 0-27.87 22.55-46.78 55.55-46.78 19.15 0 36.4 4.81 52.32 14.6l-7.96 19.65c-12.77-8.54-29.19-13.85-44.11-13.85-23.88 0-33.74 10.87-33.74 24.72 0 16.75 14.09 22.56 40.37 29.77 24.21 6.39 48.92 18.08 48.92 49.43 0 28.7-23.63 49.68-58.45 49.68-19.4 0-39.55-5.56-55.55-15.67l7.46-20.49c14.1 9.29 29.19 15.92 48.59 15.92 21.06.17 36.14-11.28 36.14-27.78zM1517.2 1608v-76.25c0-20.9-7.98-28.09-23.96-28.09-14.14 0-26.37 6.61-33.36 13.22v91.04H1438v-178.45l21.88-3.47v74.35c11.23-11.15 25.63-17.76 41.02-17.76 23.46 0 38.1 15.62 38.1 41.8v83.36h-21.8zM1639.78 1594.96c-9.35 10.89-20.62 17.04-33.72 17.04-23.03 0-39.06-15.21-39.06-34.91 0-21.86 15.77-40.98 73.03-43.64v-3.49c0-19.7-7.76-27.68-27.54-27.68-12.61 0-28.05 5.9-39.56 13.55l-4.26-19.7c10.68-7.48 28.63-14.13 45.99-14.13 33.13 0 47.91 14.13 47.32 47.38v51.12c0 10.14 1.34 11.97 12.02 11.97l-1.34 18.37c-19.78 1.58-28.62-5.32-31.79-15.96h-1.09zm.25-47.63c-36.39 4.82-49.74 12.22-49.74 27.18 0 10.89 8.26 18.95 21.7 18.95 11.26 0 21.11-5.57 28.04-13.05v-33.08zM1746.27 1608h-20.21L1678 1486h23.37l35.54 94.63 33.97-94.63H1794l-47.73 122zM1825.86 1550.74c.82 23.94 16.66 40.98 39.93 40.98 12.7 0 26.39-3.49 36.21-10.14l3.96 20.28c-10.81 6.65-25.41 10.14-40.67 10.14-36.46 0-61.29-26.35-61.29-63.67 0-39.4 25.9-66.33 59.72-66.33 29.37 0 46.28 18.62 46.28 47.71 0 6.65-1.07 14.13-2.64 19.45-.25 0-81.42.5-81.42.5v1.08zm63.19-17.54v-1.83c0-18.12-8.5-30.09-27.47-30.09-20.62 0-32.75 16.54-34.65 32.5l62.12-.58zM2067.1 1594.96c-9.26 10.89-20.42 17.04-33.4 17.04-22.74 0-38.7-15.21-38.7-34.91 0-21.86 15.63-40.98 72.35-43.64v-3.49c0-19.7-7.69-27.68-27.29-27.68-12.48 0-27.78 5.9-39.19 13.55l-4.22-19.7c10.59-7.48 28.36-14.13 45.56-14.13 32.83 0 47.46 14.13 46.88 47.38v51.12c0 10.14 1.33 11.97 11.91 11.97l-1.32 18.37c-19.6 1.58-28.36-5.32-31.51-15.96h-1.07zm.25-47.63c-36.05 4.82-49.28 12.22-49.28 27.18 0 10.89 8.18 18.95 21.41 18.95 11.17 0 20.92-5.57 27.87-13.05v-33.08zM2205.2 1608v-76.71c0-21.03-7.98-28.26-25.29-28.26-12.81 0-25.04 6.65-32.03 13.3v91.59H2126v-122.43l21.88-3.49v18.37c11.23-11.22 25.63-18.37 39.69-18.37 24.79 0 39.43 15.71 39.43 42.06v83.86h-21.8zM2412.2 1563.98c0-17-12.77-23.39-39.88-30.6-23.63-6.39-49.67-16.51-49.67-48.6 0-27.87 22.55-46.78 55.55-46.78 19.15 0 36.4 4.81 52.32 14.6l-7.96 19.65c-12.77-8.54-29.27-13.85-44.11-13.85-23.88 0-33.74 10.87-33.74 24.72 0 16.75 14.09 22.56 40.37 29.77 24.21 6.39 48.92 18.08 48.92 49.43 0 28.7-23.63 49.68-58.45 49.68-19.4 0-39.55-5.56-55.55-15.67l7.46-20.49c14.1 9.29 29.19 15.92 48.59 15.92 21.06.17 36.15-11.28 36.15-27.78zM2612.42 1470.01l-50.75 135.67H2539l-51-136-1.83 138.32H2464l5.58-166h30.17l51.25 136.5 51-136.5h29.67l5.33 166h-23l-1.58-137.99zM2677 1608v-166h22v166h-22z" fill="#A6BBC3"/><path d="M2870.98 900.5c.49-11.324-8.24-21.008-19.49-21.5-11.01 1.067-19.49 10.34-19.49 21.5 0 11.161 8.48 20.515 19.49 21.5 11.25-.574 19.98-10.176 19.49-21.5zM2835.93 1089h31.14c3.33-.17 5.9-2.99 5.73-6.31v-71.5h19.44c1.74-.08 3.41-1 4.49-2.33a6.1 6.1 0 0 0 1.16-4.9l-10.05-67.261c-.92-8.139-7.64-14.45-15.78-14.699h-41.12c-8.22.332-14.95 6.56-15.78 14.699l-10.05 67.261a6.1 6.1 0 0 0 1.16 4.9c1.08 1.42 2.75 2.25 4.49 2.33h19.44v71.5c-.17 3.4 2.4 6.23 5.73 6.31zM2994.98 900.5c.5-11.324-8.45-21.008-19.99-21.5-11.29 1.067-19.99 10.34-19.99 21.5 0 11.161 8.7 20.515 19.99 21.5 11.54-.574 20.49-10.176 19.99-21.5zM2958.93 1089h31.14c3.33-.17 5.9-2.99 5.73-6.31v-71.5h19.44c1.74-.08 3.41-1 4.49-2.33a6.1 6.1 0 0 0 1.16-4.9l-10.05-67.261c-.92-8.139-7.64-14.45-15.78-14.699h-41.12c-8.22.332-14.95 6.56-15.78 14.699l-10.05 67.261a6.1 6.1 0 0 0 1.16 4.9c1.08 1.42 2.75 2.25 4.49 2.33h19.44v71.5c-.09 3.4 2.4 6.23 5.73 6.31zM3117.98 900.5c.49-11.324-8.24-21.008-19.49-21.5-11.01 1.067-19.49 10.34-19.49 21.5 0 11.161 8.48 20.515 19.49 21.5 11.25-.574 19.98-10.176 19.49-21.5zM3082.93 1089h31.14c3.33-.17 5.9-2.99 5.73-6.31v-71.5h19.44c1.74-.08 3.41-1 4.49-2.33a6.1 6.1 0 0 0 1.16-4.9l-10.05-67.261c-.92-8.139-7.64-14.45-15.78-14.699h-41.12c-8.22.332-14.95 6.56-15.78 14.699l-10.05 67.261c-.33 1.75.09 3.49 1.16 4.9 1.08 1.42 2.75 2.25 4.49 2.33h19.44v71.5c-.17 3.4 2.4 6.23 5.73 6.31zM3241.98 900.5c.5-11.324-8.45-21.008-19.99-21.5-11.29 1.067-19.99 10.34-19.99 21.5 0 11.161 8.7 20.515 19.99 21.5 11.54-.574 20.49-10.176 19.99-21.5zM3206.59 1089h30.82c3.28-.17 5.83-2.99 5.67-6.31v-71.5h19.22c1.73-.08 3.37-1 4.44-2.33a6.131 6.131 0 0 0 1.15-4.9l-9.94-67.261c-.91-8.139-7.56-14.45-15.61-14.699h-40.68a16.334 16.334 0 0 0-15.61 14.699l-9.94 67.261c-.33 1.75.08 3.49 1.15 4.9a5.892 5.892 0 0 0 4.44 2.33h19.22v71.5c-.16 3.4 2.39 6.23 5.67 6.31zM3371.98 900.5c.5-11.324-8.45-21.008-19.99-21.5-11.29 1.067-19.99 10.34-19.99 21.5 0 11.161 8.7 20.515 19.99 21.5 11.54-.574 20.49-10.176 19.99-21.5zM3335.93 1089h31.14c3.33-.17 5.9-2.99 5.73-6.31v-71.5h19.44c1.74-.08 3.41-1 4.49-2.33a6.1 6.1 0 0 0 1.16-4.9l-10.05-67.261c-.92-8.139-7.64-14.45-15.78-14.699h-41.12c-8.22.332-14.95 6.56-15.78 14.699l-10.05 67.261c-.33 1.75.09 3.49 1.16 4.9 1.08 1.42 2.75 2.25 4.49 2.33h19.44v71.5c-.09 3.4 2.49 6.23 5.73 6.31zM3494.97 900.5c.49-11.324-8.23-21.008-19.48-21.5-11.01 1.067-19.49 10.34-19.49 21.5 0 11.161 8.48 20.515 19.49 21.5 11.33-.574 20.05-10.176 19.48-21.5zM3459.93 1089h31.14c3.33-.17 5.9-2.99 5.73-6.31v-71.5h19.44c1.74-.08 3.41-1 4.49-2.33a6.1 6.1 0 0 0 1.16-4.9l-10.05-67.261c-.92-8.139-7.64-14.45-15.78-14.699h-41.12c-8.22.332-14.95 6.56-15.78 14.699l-10.05 67.261a6.1 6.1 0 0 0 1.16 4.9c1.08 1.42 2.75 2.25 4.49 2.33h19.44v71.5c-.09 3.4 2.4 6.23 5.73 6.31zM3618.98 900.5c.5-11.324-8.45-21.008-19.99-21.5-11.29 1.067-19.99 10.34-19.99 21.5 0 11.161 8.7 20.515 19.99 21.5 11.54-.574 20.49-10.176 19.99-21.5zM3583.59 1089h30.82c3.28-.17 5.83-2.99 5.67-6.31v-71.5h19.22c1.73-.08 3.37-1 4.44-2.33a6.131 6.131 0 0 0 1.15-4.9l-9.94-67.261c-.91-8.139-7.56-14.45-15.61-14.699h-40.68a16.334 16.334 0 0 0-15.61 14.699l-9.94 67.261c-.33 1.75.08 3.49 1.15 4.9a5.892 5.892 0 0 0 4.44 2.33h19.22v71.5c-.16 3.4 2.39 6.23 5.67 6.31zM3754.98 900.5c.5-11.324-8.45-21.008-19.99-21.5-11.29 1.067-19.99 10.34-19.99 21.5 0 11.161 8.7 20.515 19.99 21.5 11.54-.574 20.49-10.176 19.99-21.5zM3718.93 1089h31.14c3.33-.17 5.9-2.99 5.73-6.31v-71.5h19.44c1.74-.08 3.41-1 4.49-2.33a6.1 6.1 0 0 0 1.16-4.9l-10.05-67.261c-.92-8.139-7.64-14.45-15.78-14.699h-41.12c-8.22.332-14.95 6.56-15.78 14.699l-10.05 67.261a6.1 6.1 0 0 0 1.16 4.9c1.08 1.42 2.75 2.25 4.49 2.33h19.44v71.5c-.09 3.4 2.4 6.23 5.73 6.31zM3877.98 900.5c.49-11.324-8.24-21.008-19.49-21.5-11.01 1.067-19.49 10.34-19.49 21.5 0 11.161 8.48 20.515 19.49 21.5 11.25-.574 19.98-10.176 19.49-21.5zM3842.93 1089h31.14c3.33-.17 5.9-2.99 5.73-6.31v-71.5h19.44c1.74-.08 3.41-1 4.49-2.33a6.1 6.1 0 0 0 1.16-4.9l-10.05-67.261c-.92-8.139-7.64-14.45-15.78-14.699h-41.12c-8.22.332-14.95 6.56-15.78 14.699l-10.05 67.261a6.1 6.1 0 0 0 1.16 4.9c1.08 1.42 2.75 2.25 4.49 2.33h19.44v71.5c-.17 3.4 2.4 6.23 5.73 6.31zM4001.98 900.5c.5-11.324-8.45-21.008-19.99-21.5-11.29 1.067-19.99 10.34-19.99 21.5 0 11.161 8.7 20.515 19.99 21.5 11.54-.574 20.49-10.176 19.99-21.5zM3966.59 1089h30.82c3.28-.17 5.83-2.99 5.67-6.31v-71.5h19.22c1.73-.08 3.37-1 4.44-2.33a6.131 6.131 0 0 0 1.15-4.9l-9.94-67.261c-.91-8.139-7.56-14.45-15.61-14.699h-40.68a16.334 16.334 0 0 0-15.61 14.699l-9.94 67.261c-.33 1.75.08 3.49 1.15 4.9a5.892 5.892 0 0 0 4.44 2.33h19.22v71.5c-.16 3.4 2.39 6.23 5.67 6.31zM4124.98 900.5c.49-11.324-8.24-21.008-19.49-21.5-11.01 1.067-19.49 10.34-19.49 21.5 0 11.161 8.48 20.515 19.49 21.5 11.25-.574 19.98-10.176 19.49-21.5zM4089.93 1089h31.14c3.33-.17 5.9-2.99 5.73-6.31v-71.5h19.44c1.74-.08 3.41-1 4.49-2.33a6.1 6.1 0 0 0 1.16-4.9l-10.05-67.261c-.92-8.139-7.64-14.45-15.78-14.699h-41.12c-8.22.332-14.95 6.56-15.78 14.699l-10.05 67.261a6.1 6.1 0 0 0 1.16 4.9c1.08 1.42 2.75 2.25 4.49 2.33h19.44v71.5c-.09 3.4 2.4 6.23 5.73 6.31z" fill="#F2F5F6"/><path d="M2979.97 963.5c.75-16.074-11.79-29.676-27.99-30.5-15.86 1.484-27.98 14.673-27.98 30.5s12.12 29.016 27.98 30.5c16.2-.824 28.65-14.426 27.99-30.5zM2930.59 1229h43.83c4.65-.25 8.3-4.14 8.05-8.86v-100.61h27.4c2.49-.16 4.81-1.32 6.31-3.31 1.49-1.99 2.15-4.47 1.66-6.96l-14.12-94.56c-1.24-11.43-10.7-20.286-22.24-20.7h-57.95c-11.54.414-21 9.27-22.24 20.7l-14.12 94.56c-.49 2.41.09 4.97 1.66 6.96 1.5 1.99 3.82 3.15 6.31 3.31h27.4v100.61c-.25 4.64 3.4 8.61 8.05 8.86zM3153.97 963.5c.73-16.074-11.58-29.676-27.49-30.5-15.57 1.484-27.48 14.673-27.48 30.5s11.91 29.016 27.48 30.5c15.91-.824 28.22-14.426 27.49-30.5zM3104.59 1229h43.83c4.65-.25 8.3-4.14 8.05-8.86v-100.61h27.4c2.49-.16 4.81-1.32 6.31-3.31 1.49-1.99 2.15-4.47 1.66-6.96l-14.12-94.56c-1.24-11.43-10.7-20.286-22.24-20.7h-57.95c-11.54.414-21 9.27-22.24 20.7l-14.12 94.56c-.49 2.41.09 4.97 1.66 6.96 1.5 1.99 3.82 3.15 6.31 3.31h27.4v100.61c-.25 4.64 3.4 8.61 8.05 8.86zM3328.97 963.5c.75-16.074-11.79-29.676-27.99-30.5-15.86 1.484-27.98 14.673-27.98 30.5s12.12 29.016 27.98 30.5c16.2-.824 28.74-14.426 27.99-30.5zM3278.59 1229h43.83c4.65-.25 8.3-4.14 8.05-8.86v-100.61h27.4c2.49-.16 4.81-1.32 6.31-3.31 1.49-1.99 2.15-4.47 1.66-6.96l-14.12-94.56c-1.24-11.43-10.7-20.286-22.24-20.7h-57.95c-11.54.414-21 9.27-22.24 20.7l-14.12 94.56c-.49 2.41.09 4.97 1.66 6.96 1.5 1.99 3.82 3.15 6.31 3.31h27.4v100.61c-.17 4.64 3.4 8.61 8.05 8.86zM3502.97 963.5c.75-16.074-11.79-29.676-27.99-30.5-15.86 1.484-27.98 14.673-27.98 30.5s12.12 29.016 27.98 30.5c16.2-.824 28.65-14.426 27.99-30.5zM3452.59 1229h43.83c4.65-.25 8.3-4.14 8.05-8.86v-100.61h27.4c2.49-.16 4.81-1.32 6.31-3.31 1.49-1.99 2.15-4.47 1.66-6.96l-14.12-94.56c-1.24-11.43-10.7-20.286-22.24-20.7h-57.95c-11.54.414-21 9.27-22.24 20.7l-14.12 94.56c-.49 2.41.09 4.97 1.66 6.96 1.5 1.99 3.82 3.15 6.31 3.31h27.4v100.61c-.17 4.64 3.4 8.61 8.05 8.86zM3685.97 963.5c.75-16.074-11.79-29.676-27.99-30.5-15.86 1.484-27.98 14.673-27.98 30.5s12.12 29.016 27.98 30.5c16.2-.824 28.74-14.426 27.99-30.5zM3636.59 1229h43.83c4.65-.25 8.3-4.14 8.05-8.86v-100.61h27.4c2.49-.16 4.81-1.32 6.31-3.31 1.49-1.99 2.15-4.47 1.66-6.96l-14.12-94.56c-1.24-11.43-10.7-20.286-22.24-20.7h-57.95c-11.54.414-21 9.27-22.24 20.7l-14.12 94.56c-.49 2.41.09 4.97 1.66 6.96 1.5 1.99 3.82 3.15 6.31 3.31h27.4v100.61c-.25 4.64 3.4 8.61 8.05 8.86zM3859.97 963.5c.75-16.074-11.79-29.676-27.99-30.5-15.86 1.484-27.98 14.673-27.98 30.5s12.12 29.016 27.98 30.5c16.2-.824 28.74-14.426 27.99-30.5zM3810.59 1229h43.83c4.65-.25 8.3-4.14 8.05-8.86v-100.61h27.4c2.49-.16 4.81-1.32 6.31-3.31 1.49-1.99 2.16-4.47 1.66-6.96l-14.12-94.56c-1.24-11.43-10.7-20.286-22.24-20.7h-57.95c-11.54.414-21 9.27-22.24 20.7l-14.12 94.56c-.49 2.41.09 4.97 1.66 6.96 1.5 1.99 3.82 3.15 6.31 3.31h27.4v100.61c-.17 4.64 3.4 8.61 8.05 8.86zM4034.97 963.5c.75-16.074-11.79-29.676-27.99-30.5-15.86 1.484-27.98 14.673-27.98 30.5s12.12 29.016 27.98 30.5c16.2-.824 28.65-14.426 27.99-30.5zM3984.53 1229h43.86c4.65-.25 8.31-4.14 8.06-8.86v-100.61h27.41c2.49-.16 4.82-1.32 6.32-3.31 1.49-1.99 2.15-4.47 1.66-6.96l-14.12-94.56c-1.25-11.43-10.72-20.286-22.27-20.7h-57.89c-11.55.414-21.02 9.27-22.27 20.7l-14.12 94.56c-.49 2.41.09 4.97 1.66 6.96 1.5 1.99 3.83 3.15 6.32 3.31h27.41v100.61c-.25 4.64 3.32 8.61 7.97 8.86z" fill="#E0E7EA"/><path d="M2912.96 1044c.99-22.21-15.98-40.92-37.98-42-21.5 2-37.98 20.21-37.98 42s16.48 40 37.98 42c22-1.08 38.97-19.79 37.98-42zM2844.88 1407h60.24c6.42-.33 11.35-5.71 11.1-12.09v-137.44h37.62c3.43-.17 6.6-1.82 8.68-4.55 2.09-2.65 2.92-6.13 2.25-9.44l-19.35-129.16c-1.75-15.65-14.77-27.74-30.62-28.32h-79.6c-15.85.58-28.87 12.67-30.62 28.32l-19.35 129.16c-.67 3.31.16 6.79 2.25 9.44 2.08 2.65 5.25 4.3 8.68 4.55h37.62v137.44c-.25 6.38 4.68 11.76 11.1 12.09zM3150.96 1044c.99-22.21-15.98-40.92-37.98-42-21.5 2-37.98 20.21-37.98 42s16.48 40 37.98 42c22-1.08 38.97-19.79 37.98-42zM3083.55 1407h59.9c6.39-.33 11.29-5.71 11.04-12.09v-137.44h37.42c3.4-.17 6.55-1.82 8.63-4.55 2.07-2.65 2.9-6.13 2.24-9.44l-19.25-129.16c-1.75-15.65-14.69-27.74-30.45-28.32h-79.16c-15.76.58-28.7 12.67-30.45 28.32l-19.25 129.16c-.66 3.31.17 6.79 2.24 9.44 2.08 2.65 5.23 4.3 8.63 4.55h37.42v137.44a11.631 11.631 0 0 0 11.04 12.09zM3388.96 1044c.99-22.21-15.98-40.92-37.98-42-21.5 2-37.98 20.21-37.98 42s16.48 40 37.98 42c22-1.08 38.97-19.79 37.98-42zM3321.55 1407h59.9c6.39-.33 11.29-5.71 11.04-12.09v-137.44h37.42c3.4-.17 6.55-1.82 8.63-4.55 2.07-2.65 2.9-6.13 2.24-9.44l-19.25-129.16c-1.75-15.65-14.69-27.74-30.45-28.32h-79.16c-15.76.58-28.7 12.67-30.45 28.32l-19.25 129.16c-.66 3.31.17 6.79 2.24 9.44 2.08 2.65 5.23 4.3 8.63 4.55h37.42v137.44a11.631 11.631 0 0 0 11.04 12.09zM3626.96 1044c.99-22.21-15.98-40.92-37.98-42-21.5 2-37.98 20.21-37.98 42s16.48 40 37.98 42c21.91-1.08 38.89-19.79 37.98-42zM3559.55 1407h59.9c6.39-.33 11.29-5.71 11.04-12.09v-137.44h37.42c3.4-.17 6.55-1.82 8.63-4.55 2.07-2.65 2.9-6.13 2.24-9.44l-19.25-129.16c-1.75-15.65-14.69-27.74-30.45-28.32h-79.16c-15.76.58-28.7 12.67-30.45 28.32l-19.25 129.16c-.66 3.31.17 6.79 2.24 9.44 2.08 2.65 5.23 4.3 8.63 4.55h37.42v137.44a11.631 11.631 0 0 0 11.04 12.09zM3878.96 1044c1-22.21-16.19-40.92-38.48-42-21.79 2-38.48 20.21-38.48 42s16.69 40 38.48 42c22.2-1.08 39.4-19.79 38.48-42zM3810.55 1407h59.9c6.39-.33 11.29-5.71 11.04-12.09v-137.44h37.42c3.4-.17 6.55-1.82 8.63-4.55 2.07-2.65 2.9-6.13 2.24-9.44l-19.25-129.16c-1.75-15.65-14.69-27.74-30.45-28.32h-79.16c-15.76.58-28.7 12.67-30.45 28.32l-19.25 129.16c-.66 3.31.17 6.79 2.24 9.44 2.08 2.65 5.23 4.3 8.63 4.55h37.42v137.44a11.631 11.631 0 0 0 11.04 12.09zM4116.96 1044c.99-22.21-15.98-40.92-37.98-42-21.5 2-37.98 20.21-37.98 42s16.48 40 37.98 42c21.91-1.08 38.89-19.79 37.98-42zM4048.55 1407h59.9c6.39-.33 11.29-5.71 11.04-12.09v-137.44h37.42c3.4-.17 6.55-1.82 8.63-4.55 2.07-2.65 2.9-6.13 2.24-9.44l-19.25-129.16c-1.75-15.65-14.69-27.74-30.45-28.32h-79.16c-15.76.58-28.7 12.67-30.45 28.32l-19.25 129.16c-.66 3.31.17 6.79 2.24 9.44 2.08 2.65 5.23 4.3 8.63 4.55h37.42v137.44a11.631 11.631 0 0 0 11.04 12.09z" fill="#D2DDE1"/><path d="M3007.96 1185c1.08-25.36-17.92-46.76-42.48-48-24.06 2.31-42.48 23.14-42.48 48s18.42 45.69 42.48 48c24.56-1.23 43.56-22.72 42.48-48z" fill="#BCCCD2"/><path d="M2932.45 1603h66.94c7.08-.33 12.58-6.53 12.33-13.9v-158.4h41.85c3.75-.25 7.34-2.15 9.67-5.21 2.34-3.06 3.25-7.04 2.5-10.92l-21.5-148.98c-1.92-18.03-16.34-31.93-34.02-32.59h-88.44c-17.59.66-32.1 14.56-34.02 32.59l-21.5 148.98c-.75 3.8.16 7.77 2.5 10.92 2.33 3.06 5.83 4.96 9.67 5.21h41.85v158.4c-.5 7.37 5 13.57 12.17 13.9zM3272.96 1185c1.07-25.36-17.92-46.76-42.48-48-24.06 2.31-42.48 23.14-42.48 48s18.42 45.69 42.48 48c24.56-1.23 43.55-22.72 42.48-48z" fill="#BCCCD2"/><path d="M3197.17 1603h66.58c7.04-.33 12.52-6.53 12.27-13.9v-158.4h41.62c3.73-.25 7.3-2.15 9.62-5.21 2.32-3.06 3.23-7.04 2.49-10.92l-21.4-148.98c-1.9-18.03-16.25-31.93-33.82-32.59h-87.97c-17.5.66-31.92 14.56-33.83 32.59l-21.48 148.98c-.74 3.8.17 7.77 2.49 10.92 2.32 3.06 5.81 4.96 9.62 5.21h41.62v158.4c-.41 7.37 5.06 13.57 12.19 13.9zM3780.96 1185c1.07-25.36-17.92-46.76-42.48-48-24.06 2.31-42.48 23.14-42.48 48s18.42 45.69 42.48 48c24.56-1.23 43.55-22.72 42.48-48z" fill="#BCCCD2"/><path d="M3705.11 1603h66.61c7.05-.33 12.53-6.53 12.28-13.9v-158.4h41.64c3.73-.25 7.29-2.15 9.62-5.21 2.32-3.06 3.23-7.04 2.49-10.92l-21.4-148.98c-1.91-18.03-16.26-31.93-33.85-32.59h-88c-17.5.66-31.94 14.56-33.84 32.59l-21.41 148.98c-.74 3.8.17 7.77 2.49 10.92 2.33 3.06 5.81 4.96 9.63 5.21H3693v158.4c-.49 7.37 4.98 13.57 12.11 13.9zM3520.96 1185c1.07-25.36-17.92-46.76-42.48-48-24.06 2.31-42.48 23.14-42.48 48s18.42 45.69 42.48 48c24.56-1.23 43.55-22.72 42.48-48z" fill="#BCCCD2"/><path d="M3445.11 1603h66.61c7.05-.33 12.53-6.53 12.28-13.9v-158.4h41.64c3.73-.25 7.29-2.15 9.62-5.21 2.32-3.06 3.23-7.04 2.49-10.92l-21.4-148.98c-1.91-18.03-16.26-31.93-33.85-32.59h-88c-17.5.66-31.94 14.56-33.84 32.59l-21.41 148.98c-.74 3.8.17 7.77 2.49 10.92 2.33 3.06 5.81 4.96 9.62 5.21H3433v158.4c-.41 7.37 5.06 13.57 12.11 13.9zM4044.96 1185c1.07-25.36-17.92-46.76-42.48-48-24.06 2.31-42.48 23.14-42.48 48s18.42 45.69 42.48 48c24.56-1.23 43.55-22.72 42.48-48z" fill="#BCCCD2"/><path d="M3969.11 1603h66.61c7.05-.33 12.53-6.53 12.28-13.9v-158.4h41.63c3.74-.25 7.3-2.15 9.63-5.21 2.32-3.06 3.23-7.04 2.49-10.92l-21.4-148.98c-1.91-18.03-16.26-31.93-33.85-32.59h-88c-17.5.66-31.94 14.56-33.84 32.59l-21.41 148.98c-.74 3.8.17 7.77 2.49 10.92 2.33 3.06 5.81 4.96 9.63 5.21H3957v158.4c-.49 7.37 4.98 13.57 12.11 13.9z" fill="#BCCCD2"/></g></svg>